<svg width="44" height="26" viewBox="0 0 44 26" fill="none" xmlns="http://www.w3.org/2000/svg">
<path d="M19.5556 20.2272H24.4444V25.0455H19.5556V20.2272Z" fill="#C2FE0C"/>
<path d="M24.4444 15.4091L29.3333 15.4091V20.2273L24.4444 20.2272V15.4091Z" fill="#C2FE0C"/>
<path d="M29.3333 10.5909H34.2222V15.4091H29.3333L29.3333 10.5909Z" fill="#C2FE0C"/>
<path d="M34.2222 5.77272L39.1111 5.77272V10.5909L34.2222 10.5909V5.77272Z" fill="#C2FE0C"/>
<path d="M39.1111 0.954544L44 0.954544V5.77272L39.1111 5.77272V0.954544Z" fill="#C2FE0C"/>
<path d="M19.5556 15.4091L14.6667 15.4091L14.6667 20.2273L19.5556 20.2272V15.4091Z" fill="#C2FE0C"/>
<path d="M14.6667 10.5909H9.77778V15.4091H14.6667V10.5909Z" fill="#C2FE0C"/>
<path d="M9.77778 5.77272L4.88889 5.77272L4.88889 10.5909L9.77778 10.5909L9.77778 5.77272Z" fill="#C2FE0C"/>
<path d="M4.88889 0.954544L0 0.954544L0 5.77272L4.88889 5.77272L4.88889 0.954544Z" fill="#C2FE0C"/>
</svg>
