<svg width="105" height="87" viewBox="0 0 105 87" fill="none" xmlns="http://www.w3.org/2000/svg">
<path d="M-1.69017e-06 48.3333L-2.11272e-06 38.6667L105 38.6667L105 48.3333L-1.69017e-06 48.3333Z" fill="white"/>
<path d="M85.9091 38.6667L85.9091 29L95.4545 29L95.4545 38.6667L85.9091 38.6667Z" fill="white"/>
<path d="M76.3636 29L76.3636 19.3333L85.9091 19.3333L85.9091 29L76.3636 29Z" fill="white"/>
<path d="M66.8182 19.3333L66.8182 9.66667L76.3636 9.66667L76.3636 19.3333L66.8182 19.3333Z" fill="white"/>
<path d="M57.2727 9.66667L57.2727 5.12592e-06L66.8182 4.70868e-06L66.8182 9.66667L57.2727 9.66667Z" fill="white"/>
<path d="M85.9091 48.3333L85.9091 58L95.4546 58L95.4546 48.3333L85.9091 48.3333Z" fill="white"/>
<path d="M76.3636 58L76.3636 67.6667L85.9091 67.6667L85.9091 58L76.3636 58Z" fill="white"/>
<path d="M66.8182 67.6667L66.8182 77.3333L76.3636 77.3333L76.3636 67.6667L66.8182 67.6667Z" fill="white"/>
<path d="M57.2727 77.3333L57.2727 87L66.8182 87L66.8182 77.3333L57.2727 77.3333Z" fill="white"/>
</svg>
